PathFileType	4	(X/Y/Z)	OpenSim_Sub05_CSBaseline_Gyro.trc
DataRate	CameraRate	NumFrames	NumMarkers	Units	OrigDataRate	OrigDataStartFrame	OrigNumFrames
100	100	23	8	m	100	7918	10557
Frame#	Time	torso_imu_offset_imu	pelvis_imu_offset_imu	tibia_r_imu_offset_imu	femur_r_imu_offset_imu	tibia_l_imu_offset_imu	femur_l_imu_offset_imu	toes_r_imu_offset_imu	toes_l_imu_offset_imu
				X1	Y1	Z1	X2	Y2	Z2	X3	Y3	Z3	X4	Y4	Z4	X5	Y5	Z5	X6	Y6	Z6	X7	Y7	Z7	X8		Y8	Z8	

7918	79.17000000	0.65725466	-0.13444953	0.20603783	0.01373426	-0.01849587	0.03500382	-0.11314903	-0.05201715	-0.72361894	0.25140564	-0.15586666	-0.60418939	0.35295304	0.64084004	-3.72260957	-0.00332882	-0.20096080	0.08469707	-0.01786319	-0.20693670	-0.20860080	0.30839869	3.17684658	-0.82980092
7919	79.18000000	0.61973372	-0.10321794	0.19627555	-0.03659196	-0.07742013	0.06779997	-0.15559905	-0.03944673	-0.74959667	0.10270716	-0.07274577	-0.58955259	0.35834914	0.61167279	-3.63393387	-0.18401293	-0.16015497	0.15790069	-0.03046798	-0.23430322	-0.22121639	0.36052203	3.01553937	-0.85418119
7920	79.19000000	0.57941141	-0.07461895	0.18212819	-0.06775792	-0.13944609	0.09669979	-0.16666026	-0.04099633	-0.78472624	-0.05122920	-0.02909050	-0.56841829	0.32719036	0.59112229	-3.49970594	-0.32073988	-0.10713093	0.15542160	-0.03332245	-0.26672882	-0.23628004	0.44505970	2.83843514	-0.90754300
7921	79.20000000	0.51980226	-0.06558261	0.17133497	-0.05595220	-0.15789721	0.10509276	-0.22845164	-0.03765626	-0.83066744	-0.11483635	0.00154953	-0.55087974	0.23133134	0.53297006	-3.33926916	-0.37959563	-0.14536727	0.11540246	-0.02557738	-0.30370964	-0.26329021	0.45241927	2.63237204	-0.92078883
7922	79.21000000	0.46283051	-0.07664215	0.15824279	-0.06276360	-0.15458636	0.09350002	-0.25733725	-0.02904161	-0.90130912	-0.10577526	-0.03333633	-0.50669666	0.10620055	0.43688664	-3.12841593	-0.35579768	-0.26400032	0.09239414	-0.00463097	-0.34419946	-0.29071020	0.38143714	2.45839773	-0.88869302
7923	79.22000000	0.41753316	-0.06790218	0.14127967	-0.10510291	-0.18267488	0.08579130	-0.27444155	-0.04923145	-0.96339993	-0.06123396	-0.02878147	-0.43319774	-0.01021536	0.33180732	-2.85777380	-0.24531500	-0.42950030	0.05363466	-0.01006704	-0.42178858	-0.31828791	0.34667927	2.37743206	-0.87681205
7924	79.23000000	0.37040043	-0.05610309	0.14490098	-0.16878603	-0.22236966	0.09082081	-0.31223315	-0.04754152	-1.04841836	-0.00797398	0.02457945	-0.37427940	-0.04296965	0.23542950	-2.53670646	-0.08256637	-0.55586932	0.06137822	-0.03774389	-0.52174179	-0.33746511	0.30223191	2.31585382	-0.86185702
7925	79.24000000	0.31581288	-0.06641890	0.13094661	-0.22373801	-0.24124801	0.08611860	-0.32362806	-0.02696144	-1.15272266	0.00551248	0.04971939	-0.31482302	-0.10020107	0.10723064	-2.07906107	0.10606759	-0.58569665	0.08203020	-0.06085153	-0.64060414	-0.35394867	0.19091474	2.08200776	-0.79398342
7926	79.25000000	0.25723182	-0.06780373	0.13253961	-0.25235494	-0.23886977	0.09013867	-0.35648576	-0.01197395	-1.25214346	-0.05945316	0.09590866	-0.23921704	-0.11289753	0.01885218	-1.63778294	0.23213403	-0.54189648	0.07270146	-0.06595840	-0.77862778	-0.35074075	0.12597548	1.66126300	-0.68305075
7927	79.26000000	0.18751608	-0.06121135	0.09803083	-0.27109325	-0.25044377	0.09880019	-0.36279510	0.00175188	-1.35143358	-0.13602137	0.12927839	-0.16330802	-0.06230639	-0.03648206	-1.17304051	0.28385282	-0.42055316	0.07101507	-0.08101111	-0.92961458	-0.34063277	0.19418124	1.17580752	-0.58167196
7928	79.27000000	0.11903426	-0.05182500	0.04597709	-0.28737989	-0.28006937	0.12087158	-0.36983322	0.00950142	-1.45709846	-0.21040792	0.17057724	-0.10672468	-0.00075559	-0.14286717	-0.69020336	0.26913031	-0.25231457	0.00865509	-0.08211417	-1.08651878	-0.33370855	0.12451597	0.52967748	-0.37123477
7929	79.28000000	0.05588179	-0.03918134	0.01026965	-0.29447471	-0.28977864	0.13634112	-0.34764185	0.01991614	-1.55051290	-0.30890854	0.25556508	-0.05348540	-0.02035938	-0.28427620	-0.23234672	0.37243849	-0.14160510	-0.13024561	-0.07326288	-1.26403759	-0.32885075	-0.78716090	-0.31454688	0.01172487
7930	79.29000000	-0.00549597	-0.02211576	-0.01032509	-0.29536048	-0.29344348	0.15587791	-0.31321882	0.02565508	-1.65555894	-0.40770750	0.30864459	0.00351033	-0.04569989	-0.34930242	0.29321849	0.57384834	-0.14212220	-0.30319505	-0.05965037	-1.46332145	-0.33736986	-0.68395217	-1.10887240	0.17010818
7931	79.30000000	-0.05526289	0.00014068	-0.04455452	-0.30466027	-0.28606764	0.15687101	-0.29169301	0.06035154	-1.75789222	-0.45946639	0.31853281	0.08538755	0.00586723	-0.37952843	0.98500198	0.76408631	-0.20094976	-0.40301595	-0.06989266	-1.71635036	-0.32719943	-0.64483949	-1.77905570	0.06068920
7932	79.31000000	-0.09970240	0.02893999	-0.07156860	-0.29750471	-0.25034255	0.15542601	-0.32892909	0.07517918	-1.87280222	-0.50361840	0.36833421	0.19319455	-0.04360068	-0.40288830	1.59899012	0.88522518	-0.25693577	-0.40095527	-0.14891272	-2.00065113	-0.30528769	-0.15511329	-2.73529936	0.04508316
7933	79.32000000	-0.13588485	0.05932711	-0.09071081	-0.28371508	-0.17739905	0.14334883	-0.41605512	0.08242936	-1.98198745	-0.54140391	0.41685935	0.33405491	-0.23066524	-0.50611940	2.10325567	0.75308890	-0.36383597	-0.26439577	-0.20224995	-2.32884320	-0.27768919	-0.05265825	-2.37711610	0.18930451
7934	79.33000000	-0.17688436	0.08976924	-0.10137179	-0.35615939	-0.10360911	0.13407689	-0.46059292	0.01565233	-2.11374952	-0.58696910	0.44974183	0.49973373	-0.22846312	-0.74743966	1.80644891	0.26743300	-0.58715462	-0.04154683	-0.22395452	-2.70385088	-0.24826290	-0.29636025	-1.22305700	0.50387234
7935	79.34000000	-0.22422765	0.10192142	-0.11437938	-0.42140387	-0.02803560	0.10894410	-0.62678173	-0.03289700	-2.28025888	-0.61889389	0.54379284	0.67422041	0.55379236	-0.60827811	0.94191283	-0.01089729	-0.69465122	0.13195500	-0.25037466	-3.16162848	-0.20121356	0.08366761	-1.00650517	0.85395468
7936	79.35000000	-0.28744158	0.09255300	-0.13383759	-0.42484551	0.00667679	0.05051640	-0.77964648	-0.07312730	-2.40397833	-0.61704262	0.65313075	0.88098073	0.49301316	-0.30980499	0.69193387	0.13113005	-0.50033742	0.30058717	-0.33954171	-3.70970006	-0.17769054	0.52233003	-1.28897446	0.73474747
7937	79.36000000	-0.35539703	0.07420364	-0.14965225	-0.40433024	-0.01248841	-0.02515302	-0.97572342	-0.15457713	-2.46711112	-0.60041569	0.75335757	1.10069227	-0.40040655	-0.25708222	1.02900127	0.30540615	-0.21692487	0.52253920	-0.38526827	-4.21896745	-0.20266697	0.15592232	-1.08497475	0.35905153
7938	79.37000000	-0.42381373	0.06452641	-0.16864267	-0.37533499	0.01174919	-0.09764286	-1.00894670	-0.21054423	-2.54780031	-0.56848842	0.90091141	1.32501921	-1.02696279	-0.31719589	1.21982131	0.43885143	-0.09725687	0.57927636	-0.40906198	-4.75067732	-0.32027148	-0.32532755	-0.66478310	0.16295664
7939	79.38000000	-0.49312849	0.06822855	-0.18885028	-0.37545623	0.04746844	-0.16431152	-0.97581847	-0.22177731	-2.63165625	-0.49596354	1.01859466	1.53677556	-1.33630422	-0.48454232	1.14082032	0.43183346	-0.13809683	0.45762734	-0.57162274	-5.31709272	-0.48557378	-0.27992540	-0.53599014	0.18870406
7940	79.39000000	-0.58531519	0.05093874	-0.21956614	-0.39934729	0.04759447	-0.21494786	-0.85344674	-0.18951632	-2.65770439	-0.40112766	1.04975722	1.73600137	-0.83662668	-0.55523816	1.04098705	0.29703423	-0.18788967	0.35904269	-0.58468415	-5.67269121	-0.69128450	-0.25510875	-0.40696714	0.18808003
